<svg width="258" height="258" viewBox="0 0 258 258" fill="none" xmlns="http://www.w3.org/2000/svg">
    <g clip-path="url(#clip0_478_399)">
        <path
            d="M128.99 257.97C57.86 257.97 0 200.11 0 128.99C0 57.87 57.86 0 128.99 0C200.12 0 257.98 57.86 257.98 128.99C257.98 200.12 200.12 257.98 128.99 257.98V257.97ZM128.99 3.79C59.95 3.79 3.79 59.95 3.79 128.99C3.79 198.03 59.95 254.18 128.98 254.18C198.01 254.18 254.17 198.02 254.17 128.99C254.17 59.96 198.02 3.79 128.99 3.79Z"
            fill="white" />
        <path d="M93.15 127.7V65.5601L146.97 96.6301L200.79 127.7L146.97 158.77L93.15 189.85V127.7Z" fill="#FCFCFC" />
    </g>
    <defs>
        <clipPath id="clip0_478_399">
            <rect width="257.97" height="257.97" fill="white" />
        </clipPath>
    </defs>
</svg>